<svg xmlns="http://www.w3.org/2000/svg" version="1.1" xmlns:xlink="http://www.w3.org/1999/xlink" x="0" y="0" style="enable-background:new 0 0 512 512" xml:space="preserve" class="" viewBox="106 0 300 512"><g><circle cx="256" cy="467" r="45" fill="currentColor" opacity="1"></circle><path d="M405.792 142.082C401.741 64.003 337.292 1.607 259.071.03c-1.026-.02-2.043-.03-3.063-.03-74.638 0-138.222 55.019-148.564 129.134A151.469 151.469 0 0 0 105.999 150c0 24.853 20.147 45 45 45s45-20.147 45-45c0-2.827.195-5.661.582-8.426 4.188-30.007 30.222-52.165 60.678-51.562 15.021.303 29.36 6.34 40.379 17.001 11.009 10.651 17.499 24.763 18.276 39.732.865 16.67-4.961 32.489-16.406 44.544C288.051 203.355 272.6 210 255.998 210c-24.853 0-45 20.147-45 45v89c0 24.853 20.147 45 45 45s45-20.147 45-45v-50.968c24.073-7.604 46.159-21.218 63.777-39.774 28.607-30.131 43.174-69.614 41.017-111.176z" fill="currentColor" opacity="1"></path></g></svg>